<?xml version="1.0" encoding="UTF-8"?>
<!DOCTYPE svg PUBLIC "-//W3C//DTD SVG 1.1//EN" "http://www.w3.org/Graphics/SVG/1.1/DTD/svg11.dtd">
<svg xmlns="http://www.w3.org/2000/svg" version="1.1" width="36px" height="37px" style="shape-rendering:geometricPrecision; text-rendering:geometricPrecision; image-rendering:optimizeQuality; fill-rule:evenodd; clip-rule:evenodd" xmlns:xlink="http://www.w3.org/1999/xlink">
<g><path style="opacity:0.762" fill="#760BFF" d="M 11.5,6.5 C 17.5092,6.33385 23.5092,6.50051 29.5,7C 31.0454,8.82194 31.712,10.9886 31.5,13.5C 31.1667,15.1667 30.8333,16.8333 30.5,18.5C 29.7518,15.5027 29.0851,12.5027 28.5,9.5C 22.4408,9.13675 16.7742,8.13675 11.5,6.5 Z"/></g>
<g><path style="opacity:0.798" fill="#760BFF" d="M 7.5,10.5 C 13.5092,10.3338 19.5092,10.5005 25.5,11C 27.0454,12.8219 27.712,14.9886 27.5,17.5C 27.1667,19.1667 26.8333,20.8333 26.5,22.5C 25.7964,19.2959 25.1298,16.1292 24.5,13C 18.4121,13.1256 12.7455,12.2923 7.5,10.5 Z"/></g>
<g><path style="opacity:0.684" fill="#760BFF" d="M 8.5,13.5 C 13.536,13.0616 18.3693,13.7283 23,15.5C 23.7991,20.0868 23.6324,24.5868 22.5,29C 16.5645,31.125 10.7312,30.9583 5,28.5C 3.4961,24.9613 3.16277,21.2946 4,17.5C 4.90659,15.3909 6.40659,14.0576 8.5,13.5 Z M 7.5,16.5 C 11.8461,16.3343 16.1794,16.501 20.5,17C 21.6168,20.0731 21.7835,23.2397 21,26.5C 16.5868,27.6324 12.0868,27.7991 7.5,27C 6.20348,23.5011 6.20348,20.0011 7.5,16.5 Z"/></g>
</svg>
