<?xml version="1.0" encoding="UTF-8"?>
<!DOCTYPE svg PUBLIC "-//W3C//DTD SVG 1.1//EN" "http://www.w3.org/Graphics/SVG/1.1/DTD/svg11.dtd">
<svg xmlns="http://www.w3.org/2000/svg" version="1.1" width="512px" height="512px" style="shape-rendering:geometricPrecision; text-rendering:geometricPrecision; image-rendering:optimizeQuality; fill-rule:evenodd; clip-rule:evenodd" xmlns:xlink="http://www.w3.org/1999/xlink">
<g><path style="opacity:0.981" fill="#760BFF" d="M 145.5,-0.5 C 218.833,-0.5 292.167,-0.5 365.5,-0.5C 386.485,4.98567 399.652,18.319 405,39.5C 405.667,195.167 405.667,350.833 405,506.5C 403.634,508.362 402.134,510.028 400.5,511.5C 397.167,511.5 393.833,511.5 390.5,511.5C 345.545,472.885 300.545,434.219 255.5,395.5C 210.455,434.219 165.455,472.885 120.5,511.5C 117.167,511.5 113.833,511.5 110.5,511.5C 108.866,510.028 107.366,508.362 106,506.5C 105.333,350.833 105.333,195.167 106,39.5C 111.348,18.319 124.515,4.98567 145.5,-0.5 Z M 155.5,19.5 C 222.167,19.3333 288.834,19.5 355.5,20C 373.333,21.8333 383.167,31.6667 385,49.5C 385.667,192.5 385.667,335.5 385,478.5C 343.5,443 302,407.5 260.5,372C 255.816,370.898 251.483,371.564 247.5,374C 207.295,409.207 166.795,444.041 126,478.5C 125.333,335.5 125.333,192.5 126,49.5C 128.011,31.6564 137.844,21.6564 155.5,19.5 Z"/></g>
<g><path style="opacity:0.977" fill="#760BFF" d="M 250.5,125.5 C 256.52,124.22 261.353,125.887 265,130.5C 272.105,144.377 278.939,158.377 285.5,172.5C 302.077,175.655 318.744,178.488 335.5,181C 342.224,185.063 343.724,190.563 340,197.5C 328.455,209.344 316.622,220.844 304.5,232C 307.608,247.98 310.608,263.98 313.5,280C 311.972,288.527 306.972,291.86 298.5,290C 284.167,282.5 269.833,275 255.5,267.5C 241.167,275 226.833,282.5 212.5,290C 204.028,291.86 199.028,288.527 197.5,280C 200.392,263.98 203.392,247.98 206.5,232C 194.378,220.844 182.545,209.344 171,197.5C 167.276,190.563 168.776,185.063 175.5,181C 192.286,178.674 208.953,175.841 225.5,172.5C 232.605,158.623 239.439,144.623 246,130.5C 247.366,128.638 248.866,126.972 250.5,125.5 Z"/></g>
</svg>
