<?xml version="1.0" encoding="UTF-8"?>
<!DOCTYPE svg PUBLIC "-//W3C//DTD SVG 1.1//EN" "http://www.w3.org/Graphics/SVG/1.1/DTD/svg11.dtd">
<svg xmlns="http://www.w3.org/2000/svg" version="1.1" width="512px" height="512px" style="shape-rendering:geometricPrecision; text-rendering:geometricPrecision; image-rendering:optimizeQuality; fill-rule:evenodd; clip-rule:evenodd" xmlns:xlink="http://www.w3.org/1999/xlink">
<g><path style="opacity:0.951" fill="#FFFFFF" d="M 36.5,92.5 C 141.167,92.3333 245.834,92.5 350.5,93C 352.939,93.7739 354.773,95.2739 356,97.5C 356.5,116.497 356.667,135.497 356.5,154.5C 375.503,154.333 394.503,154.5 413.5,155C 415.726,156.227 417.226,158.061 418,160.5C 418.5,179.164 418.667,197.83 418.5,216.5C 437.503,216.333 456.503,216.5 475.5,217C 477.333,217.5 478.5,218.667 479,220.5C 479.667,285.167 479.667,349.833 479,414.5C 478.167,415.333 477.333,416.167 476.5,417C 371.223,418.66 265.89,418.993 160.5,418C 158.061,417.226 156.227,415.726 155,413.5C 154.5,394.503 154.333,375.503 154.5,356.5C 135.497,356.667 116.497,356.5 97.5,356C 95.2739,354.773 93.7739,352.939 93,350.5C 92.5001,331.836 92.3334,313.17 92.5,294.5C 73.4971,294.667 54.4971,294.5 35.5,294C 33.6667,293.5 32.5,292.333 32,290.5C 31.3333,225.833 31.3333,161.167 32,96.5C 33.3968,94.9297 34.8968,93.5964 36.5,92.5 Z M 47.5,109.5 C 144.833,109.5 242.167,109.5 339.5,109.5C 339.5,165.5 339.5,221.5 339.5,277.5C 242.167,277.5 144.833,277.5 47.5,277.5C 47.5,221.5 47.5,165.5 47.5,109.5 Z M 356.5,171.5 C 371.5,171.5 386.5,171.5 401.5,171.5C 401.5,227.5 401.5,283.5 401.5,339.5C 304.167,339.5 206.833,339.5 109.5,339.5C 109.5,324.5 109.5,309.5 109.5,294.5C 190.167,294.667 270.834,294.5 351.5,294C 353.667,293.167 355.167,291.667 356,289.5C 356.5,250.168 356.667,210.835 356.5,171.5 Z M 418.5,233.5 C 433.5,233.5 448.5,233.5 463.5,233.5C 463.5,289.5 463.5,345.5 463.5,401.5C 366.167,401.5 268.833,401.5 171.5,401.5C 171.5,386.5 171.5,371.5 171.5,356.5C 252.167,356.667 332.834,356.5 413.5,356C 415.726,354.773 417.226,352.939 418,350.5C 418.5,311.501 418.667,272.501 418.5,233.5 Z"/></g>
</svg>
