<?xml version="1.0" encoding="UTF-8"?>
<!DOCTYPE svg PUBLIC "-//W3C//DTD SVG 1.1//EN" "http://www.w3.org/Graphics/SVG/1.1/DTD/svg11.dtd">
<svg xmlns="http://www.w3.org/2000/svg" version="1.1" width="512px" height="512px" style="shape-rendering:geometricPrecision; text-rendering:geometricPrecision; image-rendering:optimizeQuality; fill-rule:evenodd; clip-rule:evenodd" xmlns:xlink="http://www.w3.org/1999/xlink">
<g><path style="opacity:0.973" fill="#760BFF" d="M 242.5,20.5 C 305.959,18.126 350.459,45.7927 376,103.5C 393.183,157.283 382.016,204.116 342.5,244C 306.118,274.76 264.785,284.093 218.5,272C 167.005,254.168 136.838,218.335 128,164.5C 123.783,109.102 144.949,66.6015 191.5,37C 207.618,28.3484 224.618,22.8484 242.5,20.5 Z M 254.5,63.5 C 297.534,66.3764 325.368,88.3764 338,129.5C 345.22,174.228 328.72,206.728 288.5,227C 247.299,241.039 213.132,231.205 186,197.5C 164.034,161.697 165.7,127.031 191,93.5C 208.096,74.7522 229.263,64.7522 254.5,63.5 Z"/></g>
<g><path style="opacity:0.974" fill="#760BFF" d="M 361.5,287.5 C 376.167,287.5 390.833,287.5 405.5,287.5C 405.184,295.752 405.518,303.919 406.5,312C 417.327,315.326 426.827,320.826 435,328.5C 442.108,324.201 449.274,320.368 456.5,317C 463.879,328.922 470.879,341.088 477.5,353.5C 477.023,354.478 476.357,355.311 475.5,356C 469.003,359.414 462.67,363.081 456.5,367C 459.167,378 459.167,389 456.5,400C 463.417,404.041 470.25,408.208 477,412.5C 471.138,425.38 464.304,437.88 456.5,450C 449.274,446.632 442.108,442.799 435,438.5C 426.827,446.174 417.327,451.674 406.5,455C 405.518,463.081 405.184,471.248 405.5,479.5C 390.833,479.5 376.167,479.5 361.5,479.5C 361.816,471.248 361.482,463.081 360.5,455C 349.673,451.674 340.173,446.174 332,438.5C 326.084,441.874 320.25,445.374 314.5,449C 313.241,449.982 311.908,450.315 310.5,450C 303.121,438.078 296.121,425.912 289.5,413.5C 289.977,412.522 290.643,411.689 291.5,411C 297.997,407.586 304.33,403.919 310.5,400C 307.833,389 307.833,378 310.5,367C 303.583,362.959 296.75,358.792 290,354.5C 295.862,341.62 302.696,329.12 310.5,317C 317.726,320.368 324.892,324.201 332,328.5C 340.173,320.826 349.673,315.326 360.5,312C 361.482,303.919 361.816,295.752 361.5,287.5 Z M 376.5,352.5 C 405.274,352.106 417.441,366.106 413,394.5C 404.619,411.604 391.119,417.771 372.5,413C 352.665,402.519 347.498,387.019 357,366.5C 362.012,359.639 368.512,354.972 376.5,352.5 Z"/></g>
<g><path style="opacity:0.97" fill="#760BFF" d="M 245.5,297.5 C 248.833,297.5 252.167,297.5 255.5,297.5C 255.5,312.167 255.5,326.833 255.5,341.5C 207.928,342.963 171.428,363.629 146,403.5C 134.233,423.567 128.233,445.233 128,468.5C 113.579,469.49 99.0785,469.824 84.5,469.5C 86.2052,404.903 114.205,355.403 168.5,321C 192.554,307.41 218.221,299.577 245.5,297.5 Z"/></g>
</svg>
